<svg id="visual" viewBox="0 0 1440 945" width="1440" height="945" xmlns="http://www.w3.org/2000/svg" xmlns:xlink="http://www.w3.org/1999/xlink" version="1.1"><rect x="0" y="0" width="1440" height="945" fill="#023650"></rect><path d="M0 807L30 804.5C60 802 120 797 180 796.5C240 796 300 800 360 804.8C420 809.7 480 815.3 540 807.5C600 799.7 660 778.3 720 762.2C780 746 840 735 900 744.3C960 753.7 1020 783.3 1080 781.3C1140 779.3 1200 745.7 1260 738.5C1320 731.3 1380 750.7 1410 760.3L1440 770L1440 946L1410 946C1380 946 1320 946 1260 946C1200 946 1140 946 1080 946C1020 946 960 946 900 946C840 946 780 946 720 946C660 946 600 946 540 946C480 946 420 946 360 946C300 946 240 946 180 946C120 946 60 946 30 946L0 946Z" fill="#F7CACA" stroke-linecap="round" stroke-linejoin="miter"></path></svg>