<svg id="visual" viewBox="0 0 960 540" width="960" height="540" xmlns="http://www.w3.org/2000/svg" xmlns:xlink="http://www.w3.org/1999/xlink" version="1.1"><rect x="0" y="0" width="960" height="540" fill="#023650"></rect><path d="M0 467L20 461.5C40 456 80 445 120 442.3C160 439.7 200 445.3 240 450.2C280 455 320 459 360 459C400 459 440 455 480 449.7C520 444.3 560 437.7 600 433.3C640 429 680 427 720 430.5C760 434 800 443 840 450.8C880 458.7 920 465.3 940 468.7L960 472L960 541L940 541C920 541 880 541 840 541C800 541 760 541 720 541C680 541 640 541 600 541C560 541 520 541 480 541C440 541 400 541 360 541C320 541 280 541 240 541C200 541 160 541 120 541C80 541 40 541 20 541L0 541Z" fill="#F7CACA" stroke-linecap="round" stroke-linejoin="miter"></path></svg>